<svg width="13" height="13" viewBox="0 0 13 13" fill="none" xmlns="http://www.w3.org/2000/svg">
<path fill-rule="evenodd" clip-rule="evenodd" d="M5.25 10.25C2.48858 10.25 0.25 8.01142 0.25 5.25C0.25 2.48858 2.48858 0.25 5.25 0.25C8.01142 0.25 10.25 2.48858 10.25 5.25C10.25 6.40545 9.85807 7.46935 9.19991 8.31603L12.5669 11.6831L11.6831 12.5669L8.31602 9.19991C7.46934 9.85808 6.40544 10.25 5.25 10.25ZM9.00001 5.25C9.00001 7.32107 7.32108 9 5.25001 9C3.17894 9 1.50001 7.32107 1.50001 5.25C1.50001 3.17894 3.17894 1.5 5.25001 1.5C7.32108 1.5 9.00001 3.17894 9.00001 5.25Z" fill="white"/>
</svg>

